<svg width="64" height="64" viewBox="0 0 64 64" fill="none" xmlns="http://www.w3.org/2000/svg">
<path d="M52 64H12C5.372 64 0 58.628 0 52V12C0 5.372 5.372 0 12 0H52C58.628 0 64 5.372 64 12V52C64 58.628 58.628 64 52 64Z" fill="#FFE6E2"/>
<path d="M32.3168 48C41.552 48 47.6832 41.5168 47.6832 32.3712C47.6832 31.3248 47.5744 30.5152 47.4208 29.7088H32.3168V35.2096H41.3984C41.0272 37.5456 38.6496 42.1088 32.3168 42.1088C26.8608 42.1088 22.4064 37.5904 22.4064 32.0032C22.4064 26.416 26.8576 21.8976 32.3168 21.8976C35.44 21.8976 37.5104 23.2288 38.6912 24.3648L43.0336 20.1952C40.24 17.5712 36.64 16 32.3168 16C23.4752 16 16.3168 23.1584 16.3168 32C16.3168 40.8416 23.4752 48 32.3168 48Z" fill="#EA4335"/>
</svg>
