<svg width="64" height="64" viewBox="0 0 64 64" fill="none" xmlns="http://www.w3.org/2000/svg">
<path d="M52 64H12C5.372 64 0 58.628 0 52V12C0 5.372 5.372 0 12 0H52C58.628 0 64 5.372 64 12V52C64 58.628 58.628 64 52 64Z" fill="#ECD0FF"/>
<path d="M32.006 23.784C27.468 23.784 23.796 27.462 23.796 31.994C23.796 36.53 27.474 40.204 32.006 40.204C36.544 40.204 40.216 36.526 40.216 31.994C40.216 27.456 36.538 23.784 32.006 23.784ZM32.006 37.324C29.062 37.324 26.676 34.938 26.676 31.994C26.676 29.05 29.062 26.664 32.006 26.664C34.95 26.664 37.336 29.048 37.336 31.994C37.336 34.938 34.95 37.324 32.006 37.324Z" fill="#BE83E6"/>
<path d="M38.598 16.1C35.654 15.962 28.362 15.968 25.414 16.1C22.824 16.222 20.54 16.848 18.7 18.688C15.622 21.766 16.016 25.912 16.016 31.994C16.016 38.218 15.67 42.27 18.7 45.3C21.788 48.388 25.996 47.984 32.006 47.984C39.372 47.984 47.432 48.69 47.9 38.586C48.038 35.64 48.032 28.35 47.9 25.404C47.636 19.786 44.62 16.38 38.598 16.1ZM43.256 43.264C41.238 45.282 38.44 45.102 31.964 45.102C25.298 45.102 22.624 45.2 20.672 43.244C18.424 41.008 18.832 37.416 18.832 31.974C18.832 18.674 19.594 18.844 31.944 18.844L32.004 18.884C45.248 18.884 45.112 19.742 45.112 31.994C45.114 38.582 45.24 41.272 43.256 43.264Z" fill="#833AB4"/>
<path d="M40.542 25.378C41.6012 25.378 42.46 24.5193 42.46 23.46C42.46 22.4007 41.6012 21.542 40.542 21.542C39.4827 21.542 38.624 22.4007 38.624 23.46C38.624 24.5193 39.4827 25.378 40.542 25.378Z" fill="#BE83E6"/>
</svg>
