<svg width="64" height="64" viewBox="0 0 64 64" fill="none" xmlns="http://www.w3.org/2000/svg">
<path d="M52 64H12C5.372 64 0 58.628 0 52V12C0 5.372 5.372 0 12 0H52C58.628 0 64 5.372 64 12V52C64 58.628 58.628 64 52 64Z" fill="#C1E9FF"/>
<path d="M44.712 25.484C46.014 24.56 47.108 23.406 48 22.078V22.076C46.81 22.598 45.542 22.944 44.22 23.112C45.58 22.3 46.618 21.024 47.106 19.486C45.838 20.242 44.438 20.776 42.946 21.074C41.742 19.794 40.026 19 38.154 19C34.522 19 31.598 21.948 31.598 25.562C31.598 26.082 31.642 26.582 31.75 27.058C26.296 26.792 21.47 24.178 18.228 20.196C17.662 21.178 17.33 22.302 17.33 23.512C17.33 25.784 18.5 27.798 20.244 28.964C19.19 28.944 18.156 28.638 17.28 28.156V28.228C17.28 31.416 19.554 34.064 22.536 34.674C22.002 34.82 21.42 34.89 20.816 34.89C20.396 34.89 19.972 34.866 19.574 34.778C20.424 37.376 22.836 39.286 25.704 39.348C23.472 41.094 20.638 42.146 17.57 42.146C17.032 42.146 16.516 42.122 16 42.056C18.906 43.93 22.35 45 26.064 45C37.64 45 45.186 35.342 44.712 25.484Z" fill="#1DA1F2"/>
</svg>
