<svg width="64" height="64" viewBox="0 0 64 64" fill="none" xmlns="http://www.w3.org/2000/svg">
<path d="M52 64H12C5.372 64 0 58.628 0 52V12C0 5.372 5.372 0 12 0H52C58.628 0 64 5.372 64 12V52C64 58.628 58.628 64 52 64Z" fill="#C7D9FF"/>
<path d="M37.079 21.313H39.999V16.225C39.497 16.155 37.763 15.999 35.745 15.999C31.533 15.999 28.649 18.649 28.649 23.517V27.999H24.001V33.687H28.649V47.999L34.347 48.001V33.689H38.807L39.515 28.001H34.345V24.083C34.347 22.439 34.789 21.313 37.079 21.313Z" fill="#3B5998"/>
</svg>
