<svg width="64" height="64" viewBox="0 0 64 64" fill="none" xmlns="http://www.w3.org/2000/svg">
<path d="M52 64H12C5.372 64 0 58.628 0 52V12C0 5.372 5.372 0 12 0H52C58.628 0 64 5.372 64 12V52C64 58.628 58.628 64 52 64Z" fill="#CCEEFF"/>
<path d="M47.9919 48L47.9999 47.998V36.262C47.9999 30.52 46.7639 26.098 40.0519 26.098C36.8259 26.098 34.6599 27.868 33.7759 29.548H33.6839V26.634H27.3199V47.998H33.9479V37.42C33.9479 34.634 34.4759 31.942 37.9259 31.942C41.3239 31.942 41.3759 35.12 41.3759 37.6V48H47.9919Z" fill="#0077B5"/>
<path d="M16.528 26.636H23.1619V48H16.528V26.636Z" fill="#0077B5"/>
<path d="M19.842 16C17.722 16 16 17.722 16 19.842C16 21.964 17.722 23.72 19.842 23.72C21.962 23.72 23.684 21.964 23.684 19.842C23.684 17.722 21.962 16 19.842 16Z" fill="#0077B5"/>
</svg>
