<svg width="32" height="40" viewBox="0 0 32 40" fill="none" xmlns="http://www.w3.org/2000/svg">
<path d="M31.3334 9.33336L23.3334 0.666687V9.33336H31.3334Z" fill="#C4C0F4"/>
<path d="M16 14C10.8453 14 6.66663 18.1787 6.66663 23.3333C6.66663 28.4879 10.8453 32.6667 16 32.6667C21.1546 32.6667 25.3333 28.4879 25.3333 23.3333C25.3333 18.1787 21.1546 14 16 14ZM13.3333 28.6667V18L21.3333 23.3333L13.3333 28.6667Z" fill="#C4C0F4"/>
<path d="M31.9919 9.29264C31.9886 9.23958 31.9788 9.18685 31.9626 9.13607C31.9574 9.11328 31.9505 9.09115 31.9421 9.06934C31.9137 8.99967 31.8734 8.93522 31.8226 8.87923L23.8226 0.212565C23.7656 0.152669 23.6979 0.104167 23.6227 0.069987C23.6025 0.0605468 23.5817 0.0527343 23.5605 0.0458984C23.5 0.0234375 23.4362 0.00976567 23.3714 0.00585938C23.3587 0.00748698 23.3467 0 23.3333 0H0.666667C0.298503 0 0 0.298503 0 0.666667V39.3333C0 39.7015 0.298503 40 0.666667 40H31.3333C31.7015 40 32 39.7015 32 39.3333V9.33333C32 9.31934 31.9935 9.30664 31.9919 9.29264V9.29264ZM29.8105 8.66667H24V2.37207L29.8105 8.66667ZM1.33333 38.6667V1.33333H22.6667V9.33333C22.6667 9.7015 22.9652 10 23.3333 10H30.6667V38.6667H1.33333Z" fill="#656198"/>
<path d="M21.7034 22.7786L13.7034 17.4453C13.4987 17.3089 13.2356 17.2962 13.0188 17.4121C12.802 17.528 12.6666 17.7542 12.6666 18V28.6667C12.6666 28.9124 12.802 29.1387 13.0188 29.2545C13.2356 29.3704 13.4987 29.3577 13.7034 29.2213L21.7034 23.888C21.8886 23.7643 22 23.5563 22 23.3333C22 23.1103 21.8886 22.9023 21.7034 22.7786ZM14 27.4206V19.2461L20.1334 23.3333L14 27.4206Z" fill="#656198"/>
<path d="M16 13.3333C10.4772 13.3333 6 17.8105 6 23.3333C6 28.8561 10.4772 33.3333 16 33.3333C21.5228 33.3333 26 28.8561 26 23.3333C25.9938 17.8131 21.5202 13.3395 16 13.3333ZM16 32C11.2135 32 7.33333 28.1198 7.33333 23.3333C7.33333 18.5469 11.2135 14.6666 16 14.6666C20.7865 14.6666 24.6667 18.5469 24.6667 23.3333C24.6611 28.1175 20.7842 31.9944 16 32Z" fill="#656198"/>
</svg>
