<svg width="32" height="40" viewBox="0 0 32 40" fill="none" xmlns="http://www.w3.org/2000/svg">
<path d="M11.3332 22.6672L23.3332 20.0005V16.0005L11.3332 18.6672V22.6672Z" fill="#C4C0F4"/>
<path d="M23.3329 9.33324H31.3329L23.3329 0.666565V9.33324Z" fill="#C4C0F4"/>
<path d="M11.3338 31.3335C11.3338 32.8061 10.1398 34.0001 8.66716 34.0001C7.1945 34.0001 6.00049 32.8061 6.00049 31.3335C6.00049 29.8608 7.1945 28.6668 8.66716 28.6668C10.1398 28.6668 11.3338 29.8608 11.3338 31.3335Z" fill="#C4C0F4"/>
<path d="M23.3336 28.6672C23.3336 30.1398 22.1396 31.3338 20.6669 31.3338C19.1943 31.3338 18.0002 30.1398 18.0002 28.6672C18.0002 27.1945 19.1943 26.0005 20.6669 26.0005C22.1396 26.0005 23.3336 27.1945 23.3336 28.6672Z" fill="#C4C0F4"/>
<path d="M31.9918 9.29264C31.9886 9.23958 31.9788 9.18685 31.9625 9.13607C31.9573 9.11328 31.9505 9.09115 31.942 9.06934C31.9137 8.99967 31.8734 8.93522 31.8226 8.87923L23.8226 0.212565C23.7656 0.152669 23.6979 0.104167 23.6227 0.069987C23.6025 0.0605468 23.5817 0.0527343 23.5605 0.0458984C23.5 0.0234375 23.4362 0.00976567 23.3714 0.00585938C23.3587 0.00748698 23.3467 0 23.3333 0H0.666666C0.298502 0 0 0.298503 0 0.666667V39.3333C0 39.7015 0.298502 40 0.666666 40H31.3333C31.7015 40 32 39.7015 32 39.3333V9.33333C32 9.31934 31.9935 9.30664 31.9918 9.29264V9.29264ZM29.8105 8.66667H24V2.37207L29.8105 8.66667ZM1.33333 38.6667V1.33333H22.6667V9.33333C22.6667 9.7015 22.9652 10 23.3333 10H30.6667V38.6667H1.33333Z" fill="#656198"/>
<path d="M23.1893 15.3498L11.1893 18.0164C10.8843 18.0841 10.6672 18.3547 10.6672 18.6672V28.6844C10.0936 28.2433 9.39083 28.0031 8.66719 28.0005C6.82637 28.0005 5.33386 29.493 5.33386 31.3338C5.33386 33.1746 6.82637 34.6671 8.66719 34.6671C10.508 34.6671 12.0005 33.1746 12.0005 31.3338V23.2004L22.6672 20.8299V26.0164C22.0933 25.5757 21.3908 25.3358 20.6672 25.3338C18.8264 25.3338 17.3339 26.8263 17.3339 28.6671C17.3339 30.508 18.8264 32.0005 20.6672 32.0005C22.508 32.0005 24.0005 30.508 24.0005 28.6671V16.0005C24.0005 15.7983 23.9087 15.6069 23.7508 15.4806C23.5933 15.354 23.3866 15.3058 23.1893 15.3498ZM8.66719 33.3338C7.5627 33.3338 6.6672 32.4383 6.6672 31.3338C6.6672 30.2293 7.5627 29.3338 8.66719 29.3338C9.77169 29.3338 10.6672 30.2293 10.6672 31.3338C10.6672 32.4383 9.77169 33.3338 8.66719 33.3338ZM12.0005 21.8364V19.2004L22.6672 16.8306V19.4673L12.0005 21.8364ZM20.6672 30.6671C19.5627 30.6671 18.6672 29.7716 18.6672 28.6671C18.6672 27.5627 19.5627 26.6671 20.6672 26.6671C21.7717 26.6671 22.6672 27.5627 22.6672 28.6671C22.6672 29.7716 21.7717 30.6671 20.6672 30.6671Z" fill="#656198"/>
</svg>
