<svg width="24" height="24" viewBox="0 0 24 24" fill="none" xmlns="http://www.w3.org/2000/svg">
<path d="M15.7071 5.29289C15.3166 4.90237 14.6834 4.90237 14.2929 5.29289C13.9024 5.68342 13.9024 6.31658 14.2929 6.70711L18.5858 11H2.99994C2.44765 11 1.99994 11.4477 1.99994 12C1.99994 12.5523 2.44765 13 2.99994 13H18.5858L14.2929 17.2929C13.9024 17.6834 13.9024 18.3166 14.2929 18.7071C14.6834 19.0976 15.3166 19.0976 15.7071 18.7071L21.7071 12.7071C21.8647 12.5495 21.9587 12.3525 21.9891 12.1478C22.0036 12.0498 22.0036 11.9502 21.9891 11.8522C21.982 11.8043 21.9715 11.7574 21.9578 11.7119C21.9118 11.5586 21.8283 11.4141 21.7071 11.2929L15.7071 5.29289Z" fill="black"/>
</svg>
