<svg width="24" height="24" viewBox="0 0 24 24" fill="none" xmlns="http://www.w3.org/2000/svg">
<path d="M8.29283 5.29289C8.68336 4.90237 9.31652 4.90237 9.70705 5.29289C10.0976 5.68342 10.0976 6.31658 9.70705 6.70711L5.41415 11H21C21.5523 11 22 11.4477 22 12C22 12.5523 21.5523 13 21 13H5.41415L9.70705 17.2929C10.0976 17.6834 10.0976 18.3166 9.70705 18.7071C9.31652 19.0976 8.68336 19.0976 8.29283 18.7071L2.29283 12.7071C2.13527 12.5495 2.04128 12.3525 2.01086 12.1478C1.9963 12.0498 1.9963 11.9502 2.01086 11.8522C2.01796 11.8043 2.02847 11.7574 2.04212 11.7119C2.0881 11.5586 2.17167 11.4141 2.29283 11.2929L8.29283 5.29289Z" fill="black"/>
</svg>
