<svg width="24" height="24" viewBox="0 0 24 24" fill="none" xmlns="http://www.w3.org/2000/svg">
<path d="M24 0H0V24H24V0Z" fill="white" fill-opacity="0.01"/>
<path d="M19.75 16H6.75L4.25 6H22.25L19.75 16Z" fill="#F8D178"/>
<path fill-rule="evenodd" clip-rule="evenodd" d="M0.75 3C0.75 2.44772 1.19772 2 1.75 2H3.5C3.95887 2 4.35885 2.3123 4.47014 2.75746L5.03078 5H22.25C22.5579 5 22.8487 5.14187 23.0382 5.38459C23.2277 5.6273 23.2948 5.94379 23.2201 6.24254L20.7201 16.2425C20.6089 16.6877 20.2089 17 19.75 17H6.75C6.29113 17 5.89115 16.6877 5.77986 16.2425L2.71922 4H1.75C1.19772 4 0.75 3.55228 0.75 3ZM5.53078 7L7.53078 15H18.9692L20.9692 7H5.53078Z" fill="#E95244"/>
<path fill-rule="evenodd" clip-rule="evenodd" d="M6.75 19C6.47386 19 6.25 19.2239 6.25 19.5C6.25 19.7761 6.47386 20 6.75 20C7.02614 20 7.25 19.7761 7.25 19.5C7.25 19.2239 7.02614 19 6.75 19ZM4.25 19.5C4.25 18.1193 5.36929 17 6.75 17C8.13071 17 9.25 18.1193 9.25 19.5C9.25 20.8807 8.13071 22 6.75 22C5.36929 22 4.25 20.8807 4.25 19.5Z" fill="#E95244"/>
<path fill-rule="evenodd" clip-rule="evenodd" d="M19.75 19C19.4739 19 19.25 19.2239 19.25 19.5C19.25 19.7761 19.4739 20 19.75 20C20.0261 20 20.25 19.7761 20.25 19.5C20.25 19.2239 20.0261 19 19.75 19ZM17.25 19.5C17.25 18.1193 18.3693 17 19.75 17C21.1307 17 22.25 18.1193 22.25 19.5C22.25 20.8807 21.1307 22 19.75 22C18.3693 22 17.25 20.8807 17.25 19.5Z" fill="#E95244"/>
</svg>
