<svg width="24" height="24" viewBox="0 0 24 24" fill="none" xmlns="http://www.w3.org/2000/svg">
<path fill-rule="evenodd" clip-rule="evenodd" d="M8 7C8 6.44772 8.44772 6 9 6H18C18.5523 6 19 6.44772 19 7C19 7.55228 18.5523 8 18 8H9C8.44772 8 8 7.55228 8 7Z" fill="black"/>
<path fill-rule="evenodd" clip-rule="evenodd" d="M8 12C8 11.4477 8.44772 11 9 11H18C18.5523 11 19 11.4477 19 12C19 12.5523 18.5523 13 18 13H9C8.44772 13 8 12.5523 8 12Z" fill="black"/>
<path fill-rule="evenodd" clip-rule="evenodd" d="M8 17C8 16.4477 8.44772 16 9 16H18C18.5523 16 19 16.4477 19 17C19 17.5523 18.5523 18 18 18H9C8.44772 18 8 17.5523 8 17Z" fill="black"/>
<path fill-rule="evenodd" clip-rule="evenodd" d="M6 8C6.5523 8 7 7.5523 7 7C7 6.4477 6.5523 6 6 6C5.4477 6 5 6.4477 5 7C5 7.5523 5.4477 8 6 8Z" fill="black"/>
<path fill-rule="evenodd" clip-rule="evenodd" d="M6 13C6.5523 13 7 12.5523 7 12C7 11.4477 6.5523 11 6 11C5.4477 11 5 11.4477 5 12C5 12.5523 5.4477 13 6 13Z" fill="black"/>
<path fill-rule="evenodd" clip-rule="evenodd" d="M6 18C6.5523 18 7 17.5523 7 17C7 16.4477 6.5523 16 6 16C5.4477 16 5 16.4477 5 17C5 17.5523 5.4477 18 6 18Z" fill="black"/>
</svg>
