<svg width="24" height="24" viewBox="0 0 24 24" fill="none" xmlns="http://www.w3.org/2000/svg">
<path fill-rule="evenodd" clip-rule="evenodd" d="M6 10V7C6 3.68629 8.68632 1 12 1C15.3137 1 18 3.68629 18 7V10H20C21.1046 10 22 10.8954 22 12V21C22 22.1046 21.1046 23 20 23H4C2.89543 23 2 22.1046 2 21V12C2 10.8954 2.89543 10 4 10H6ZM8 7C8 4.79086 9.79088 3 12 3C14.2091 3 16 4.79086 16 7V10H8V7ZM4 12V21H20V12H4Z" fill="#333333"/>
<path fill-rule="evenodd" clip-rule="evenodd" d="M12 14C12.5523 14 13 14.4477 13 15V18C13 18.5523 12.5523 19 12 19C11.4477 19 11 18.5523 11 18V15C11 14.4477 11.4477 14 12 14Z" fill="#333333"/>
</svg>
