<svg width="24" height="24" viewBox="0 0 24 24" fill="none" xmlns="http://www.w3.org/2000/svg">
<path d="M24 0H0V24H24V0Z" fill="white" fill-opacity="0.01"/>
<path d="M3.99994 18.5C3.44765 18.5 2.99994 18.9477 2.99994 19.5C2.99994 20.0523 3.44765 20.5 3.99994 20.5H7.99995C8.55224 20.5 8.99995 20.0523 8.99995 19.5C8.99995 18.9477 8.55224 18.5 7.99995 18.5H3.99994Z" fill="#F5BE69"/>
<path d="M3.99994 13.5C3.44765 13.5 2.99994 13.9477 2.99994 14.5C2.99994 15.0523 3.44765 15.5 3.99994 15.5H12C12.5522 15.5 13 15.0523 13 14.5C13 13.9477 12.5522 13.5 12 13.5H3.99994Z" fill="#F1A660"/>
<path d="M2.99994 9.5C2.99994 8.94772 3.44765 8.5 3.99994 8.5L16 8.5C16.5522 8.5 17 8.94772 17 9.5C17 10.0523 16.5522 10.5 16 10.5L3.99994 10.5C3.44765 10.5 2.99994 10.0523 2.99994 9.5Z" fill="#ED8655"/>
<path d="M2.99994 4.5C2.99994 3.94772 3.44765 3.5 3.99994 3.5H20C20.5522 3.5 21 3.94772 21 4.5C21 5.05228 20.5522 5.5 20 5.5H3.99994C3.44765 5.5 2.99994 5.05228 2.99994 4.5Z" fill="#E95244"/>
</svg>
