<svg width="24" height="24" viewBox="0 0 24 24" fill="none" xmlns="http://www.w3.org/2000/svg">
<path d="M12 10C14.2091 10 16 8.20914 16 6C16 3.79086 14.2091 2 12 2C9.79086 2 8 3.79086 8 6C8 8.20914 9.79086 10 12 10Z" fill="#F8D178"/>
<path d="M12 11C16.9706 11 21 15.0294 21 20C21 20 15.6005 22 12 22C8.39954 22 3 20 3 20C3 15.0294 7.02945 11 12 11Z" fill="white"/>
<path fill-rule="evenodd" clip-rule="evenodd" d="M12 1C9.23858 1 7 3.23858 7 6C7 7.84281 7.99694 9.45278 9.4809 10.32C5.17753 11.4367 2 15.3473 2 20C2 20.3788 2.214 20.725 2.55279 20.8944L3 20C2.55279 20.8944 2.55384 20.895 2.55384 20.895L2.55527 20.8957L2.55923 20.8976L2.57153 20.9037L2.61341 20.924C2.64893 20.941 2.69953 20.965 2.76447 20.9948C2.89434 21.0544 3.08174 21.1376 3.32077 21.2365C3.79853 21.4342 4.48439 21.6953 5.33091 21.9558C7.01937 22.4753 9.37175 23 12 23C14.6283 23 16.9806 22.4753 18.6691 21.9558C19.5156 21.6953 20.2015 21.4342 20.6792 21.2365C20.9183 21.1376 21.1057 21.0544 21.2355 20.9948C21.3005 20.965 21.3511 20.941 21.3866 20.924L21.4285 20.9037L21.4408 20.8976L21.4447 20.8957L21.4472 20.8944C21.786 20.725 22 20.3788 22 20C22 15.3473 18.8225 11.4367 14.5191 10.32C16.0031 9.45278 17 7.84281 17 6C17 3.23858 14.7614 1 12 1ZM9 6C9 4.34315 10.3431 3 12 3C13.6569 3 15 4.34315 15 6C15 7.65685 13.6569 9 12 9C10.3431 9 9 7.65685 9 6ZM21 20C21.4472 20.8944 21.4472 20.8944 21.4472 20.8944L21 20ZM4.08548 19.3885L4.02497 19.3633C4.34943 15.2427 7.79604 12 12 12C16.204 12 19.6506 15.2427 19.975 19.3633L19.9145 19.3885C19.486 19.5658 18.8594 19.8047 18.0809 20.0442C16.5194 20.5247 14.3717 21 12 21C9.62825 21 7.48063 20.5247 5.91909 20.0442C5.14061 19.8047 4.51397 19.5658 4.08548 19.3885Z" fill="#E95244"/>
</svg>
