<svg width="24" height="24" viewBox="0 0 24 24" fill="none" xmlns="http://www.w3.org/2000/svg">
<g id="Icons / Search">
<path id="mirror" d="M11.0732 19.5732C15.7676 19.5732 19.5732 15.7676 19.5732 11.0732C19.5732 6.37883 15.7676 2.57323 11.0732 2.57323C6.37884 2.57323 2.57324 6.37883 2.57324 11.0732C2.57324 15.7676 6.37884 19.5732 11.0732 19.5732Z" fill="#F8D178"/>
<path id="reflection" fill-rule="evenodd" clip-rule="evenodd" d="M7.53773 7.03765C8.44149 6.13395 9.69285 5.57323 11.0733 5.57323C12.4537 5.57323 13.705 6.13394 14.6088 7.03767C14.9993 7.42819 14.9993 8.06136 14.6088 8.45188C14.2182 8.84241 13.5851 8.84241 13.1946 8.45188C12.6506 7.90791 11.902 7.57323 11.0733 7.57323C10.2446 7.57323 9.49593 7.90791 8.95189 8.45191C8.56136 8.84242 7.92819 8.8424 7.53768 8.45186C7.14717 8.06132 7.14719 7.42816 7.53773 7.03765Z" fill="white"/>
<path id="loupe" fill-rule="evenodd" clip-rule="evenodd" d="M11.0732 1.57323C5.82656 1.57323 1.57324 5.82654 1.57324 11.0732C1.57324 16.3199 5.82656 20.5732 11.0732 20.5732C13.3364 20.5732 15.4147 19.7819 17.0465 18.4607L20.7197 22.1339C21.1102 22.5244 21.7434 22.5244 22.1339 22.1339C22.5244 21.7434 22.5244 21.1102 22.1339 20.7197L18.4608 17.0465C19.7819 15.4147 20.5732 13.3364 20.5732 11.0732C20.5732 5.82654 16.3199 1.57323 11.0732 1.57323ZM3.57324 11.0732C3.57324 6.93111 6.93113 3.57323 11.0732 3.57323C15.2154 3.57323 18.5732 6.93111 18.5732 11.0732C18.5732 15.2153 15.2154 18.5732 11.0732 18.5732C6.93113 18.5732 3.57324 15.2153 3.57324 11.0732Z" fill="#E95244"/>
</g>
</svg>
