<svg width="24" height="24" viewBox="0 0 24 24" fill="none" xmlns="http://www.w3.org/2000/svg">
<path fill-rule="evenodd" clip-rule="evenodd" d="M22 3C22 2.44772 21.5523 2 21 2H12.0042C11.4519 2 11.0042 2.44772 11.0042 3C11.0042 3.55228 11.4519 4 12.0042 4H20V20H12C11.4477 20 11 20.4477 11 21C11 21.5523 11.4477 22 12 22H21C21.5523 22 22 21.5523 22 21V3Z" fill="black"/>
<path d="M10.7929 8.20711C10.4024 7.81658 10.4024 7.18342 10.7929 6.79289C11.1834 6.40237 11.8166 6.40237 12.2071 6.79289L16.6507 11.2365C16.8645 11.4199 17 11.6921 17 11.9958L17 11.9979C17.0005 12.2545 16.9029 12.5113 16.7071 12.7071L12.2071 17.2071C11.8166 17.5976 11.1834 17.5976 10.7929 17.2071C10.4024 16.8166 10.4024 16.1834 10.7929 15.7929L13.5899 12.9958H3C2.44771 12.9958 2 12.5481 2 11.9958C2 11.4436 2.44771 10.9958 3 10.9958H13.5816L10.7929 8.20711Z" fill="black"/>
</svg>
