<svg width="24" height="24" viewBox="0 0 24 24" fill="none" xmlns="http://www.w3.org/2000/svg">
<path d="M21.75 6.51263C21.7533 6.24496 21.6498 5.97665 21.441 5.7771C21.2414 5.58634 20.9834 5.49451 20.7277 5.50024H14.75C14.1977 5.50024 13.75 5.94795 13.75 6.50024C13.75 7.05252 14.1977 7.50024 14.75 7.50024H18.4106L13.1755 12.9773L8.93965 10.396C8.51529 10.1374 7.96541 10.2297 7.64869 10.6126L2.47944 16.8626C2.12745 17.2882 2.18711 17.9186 2.61269 18.2706C3.03827 18.6226 3.66862 18.5629 4.02061 18.1373L8.63814 12.5544L12.822 15.1039C13.2232 15.3484 13.7406 15.2806 14.0652 14.9409L19.75 8.99353V12.5002C19.75 13.0525 20.1977 13.5002 20.75 13.5002C21.3022 13.5002 21.75 13.0525 21.75 12.5002V6.51263Z" fill="black"/>
</svg>
